<?xml version="1.0" standalone="yes"?>
<svg xmlns="http://www.w3.org/2000/svg" width="322" height="322">
<path style="fill:#fbfbfb; stroke:none;" d="M0 0L0 322L322 322L322 0L0 0z"/>
<path style="fill:#b7b7b9; stroke:none;" d="M135.667 19.3333L136.333 19.6667L135.667 19.3333z"/>
<path style="fill:#929294; stroke:none;" d="M137 19L138 20L137 19z"/>
<path style="fill:#b7b7b9; stroke:none;" d="M138 19L138 20L144 20L138 19M130.667 20.3333L131.333 20.6667L130.667 20.3333z"/>
<path style="fill:#626163; stroke:none;" d="M132.667 20.3333L133.333 20.6667L132.667 20.3333z"/>
<path style="fill:#19181b; stroke:none;" d="M111 205C92.093 186.957 65.7004 191.702 54.3233 216C45.4779 234.891 49.3675 262.88 64.1736 277.829C99.0184 313.011 165.04 294.073 179.91 249C189.396 220.25 173.055 189.529 160 165L189 165C192.829 165 198.417 164.007 201.606 166.603C204.981 169.351 206.244 175.109 207.8 179L219.399 208C220.828 211.601 224.294 217.808 221.958 221.606C218.83 226.69 207.234 225.339 202 226L202 233L266 233C265.87 222.084 256.235 227.283 250.637 219.956C242.387 209.157 238.358 194.26 232.769 182C218.516 150.73 205.91 118.611 192.421 87C185.804 71.4917 180.938 54.0375 171.48 40C155.41 16.1481 127.923 13.819 109.095 36.0394C83.0397 66.7885 104.976 104.87 119.297 135C122.677 142.112 128.816 150.234 130.258 158C131.109 162.585 127.48 167.92 125.719 172C120.973 182.998 114.86 193.663 111 205z"/>
<path style="fill:#626163; stroke:none;" d="M146 20L147 21L146 20z"/>
<path style="fill:#929294; stroke:none;" d="M147 20L148 21L147 20z"/>
<path style="fill:#b7b7b9; stroke:none;" d="M148 20L149 21L148 20M127 21L128 22L127 21z"/>
<path style="fill:#929294; stroke:none;" d="M128 21L129 22L128 21z"/>
<path style="fill:#626163; stroke:none;" d="M149 21L150 22L149 21z"/>
<path style="fill:#929294; stroke:none;" d="M150 21L151 22L150 21z"/>
<path style="fill:#b7b7b9; stroke:none;" d="M151 21L152 22L151 21z"/>
<path style="fill:#929294; stroke:none;" d="M125 22L126 23L125 22z"/>
<path style="fill:#626163; stroke:none;" d="M126 22L127 23L126 22M152 22L153 23L152 22z"/>
<path style="fill:#b7b7b9; stroke:none;" d="M153 22L154 23L153 22M123 23L124 24L123 23z"/>
<path style="fill:#626163; stroke:none;" d="M154 23L155 24L154 23z"/>
<path style="fill:#b7b7b9; stroke:none;" d="M155 23L156 24L155 23M121 24L122 25L121 24z"/>
<path style="fill:#929294; stroke:none;" d="M156 24L157 25L156 24M120 25L121 26L120 25z"/>
<path style="fill:#626163; stroke:none;" d="M157 25L158 26L157 25z"/>
<path style="fill:#b7b7b9; stroke:none;" d="M158 25L159 26L158 25M118 26L119 27L118 26z"/>
<path style="fill:#626163; stroke:none;" d="M119 26L120 27L119 26z"/>
<path style="fill:#929294; stroke:none;" d="M159 26L160 27L159 26M117 27L118 28L117 27z"/>
<path style="fill:#626163; stroke:none;" d="M160 27L161 28L160 27z"/>
<path style="fill:#929294; stroke:none;" d="M116 28L117 29L116 28z"/>
<path style="fill:#626163; stroke:none;" d="M161 28L162 29L161 28z"/>
<path style="fill:#b7b7b9; stroke:none;" d="M162 28L163 29L162 28z"/>
<path style="fill:#626163; stroke:none;" d="M115 29L116 30L115 29z"/>
<path style="fill:#b7b7b9; stroke:none;" d="M163 29L164 30L163 29M113 30L112 32L113 30z"/>
<path style="fill:#626163; stroke:none;" d="M114 30L115 31L114 30z"/>
<path style="fill:#b7b7b9; stroke:none;" d="M164 30L165 31L164 30z"/>
<path style="fill:#626163; stroke:none;" d="M113 31L114 32L113 31z"/>
<path style="fill:#b7b7b9; stroke:none;" d="M165 31L166 32L165 31z"/>
<path style="fill:#626163; stroke:none;" d="M137 32L138 33L137 32z"/>
<path style="fill:#929294; stroke:none;" d="M138.667 32.3333L139.333 32.6667L138.667 32.3333z"/>
<path style="fill:#b7b7b9; stroke:none;" d="M117 90L116 93L118 92L117 95L118 97L120 97L119 99L121 99L121 100L120 101L122 100L122 101L126 108C125.529 111.867 127.875 116.367 132 117L127 112L128 108L126 104C121.573 104 119.162 91.9793 120 88L117 89C118.367 84.028 116.667 79.1142 117.171 74C118.473 60.7572 125.876 47.8517 138 41.831C144.722 38.4929 152.82 40.5936 159 37L156 37C152.077 29.5828 139.428 31.8934 133 34.4305C117.605 40.5064 110.834 56.231 111.005 72C111.054 76.5546 111.65 89.2731 117 90z"/>
<path style="fill:#929294; stroke:none;" d="M148 32L149 33L148 32z"/>
<path style="fill:#626163; stroke:none;" d="M149.667 32.3333L150.333 32.6667L149.667 32.3333M165 32L166 33L165 32M111 33L112 34L111 33M134 33L135 34L134 33z"/>
<path style="fill:#929294; stroke:none;" d="M135 33L136 34L135 33z"/>
<path style="fill:#626163; stroke:none;" d="M152.667 33.3333L153.333 33.6667L152.667 33.3333M166 33L167 34L166 33M110 34L111 35L110 34z"/>
<path style="fill:#929294; stroke:none;" d="M132 34L133 35L132 34z"/>
<path style="fill:#626163; stroke:none;" d="M155 34L156 35L155 34M167 34L168 35L167 34M109 35L110 36L109 35z"/>
<path style="fill:#929294; stroke:none;" d="M130 35L131 36L130 35M156 35L157 36L156 35z"/>
<path style="fill:#626163; stroke:none;" d="M157 35L158 36L157 35z"/>
<path style="fill:#929294; stroke:none;" d="M168 35L169 36L168 35M108 36L109 37L108 36z"/>
<path style="fill:#626163; stroke:none;" d="M128 36L129 37L128 36z"/>
<path style="fill:#fbfbfb; stroke:none;" d="M156 36L157 37L156 36z"/>
<path style="fill:#626163; stroke:none;" d="M158 36L159 37L158 36z"/>
<path style="fill:#b7b7b9; stroke:none;" d="M169 36L171 40L172 40L169 36M107 37L108 38L107 37z"/>
<path style="fill:#626163; stroke:none;" d="M126 37L127 38L126 37z"/>
<path style="fill:#fbfbfb; stroke:none;" d="M150.667 37.3333L151.333 37.6667L150.667 37.3333z"/>
<path style="fill:#929294; stroke:none;" d="M159 37L163 41L159 37z"/>
<path style="fill:#626163; stroke:none;" d="M169 37L170 38L169 37z"/>
<path style="fill:#b7b7b9; stroke:none;" d="M106 38L107 39L106 38z"/>
<path style="fill:#929294; stroke:none;" d="M125 38L126 39L125 38z"/>
<path style="fill:#fbfbfb; stroke:none;" d="M117 89L120 88C118.863 92.3991 120.812 103.241 126 104L128 108L127 112C130.129 112 131.397 115.405 130 118L132 121L133 119L134 119L133 123L136 123L135 126L137 125L136 128L140 131L138 130L140 134L142 134C148.423 118.572 155.553 103.372 162.15 88C166.074 78.8575 170.928 70.2549 169.826 60C169.113 53.3562 166.204 42.4808 159.826 39.0525C151.21 34.4208 134.923 41.115 128.865 47.4591C116.068 60.86 120.111 73.0575 117 89z"/>
<path style="fill:#626163; stroke:none;" d="M170 38L171 39L170 38M106 39L107 40L106 39M123 39L124 40L123 39z"/>
<path style="fill:#929294; stroke:none;" d="M124 39L125 40L124 39z"/>
<path style="fill:#b7b7b9; stroke:none;" d="M158 39L159 40L158 39z"/>
<path style="fill:#929294; stroke:none;" d="M105 40L106 41L105 40z"/>
<path style="fill:#626163; stroke:none;" d="M122 40L123 41L122 40z"/>
<path style="fill:#b7b7b9; stroke:none;" d="M172 40L173 41L172 40M104 41L105 42L104 41z"/>
<path style="fill:#626163; stroke:none;" d="M121 41L122 42L121 41z"/>
<path style="fill:#b7b7b9; stroke:none;" d="M162 41L164 43L162 41z"/>
<path style="fill:#626163; stroke:none;" d="M163 41L164 42L163 41M172 41L173 42L172 41z"/>
<path style="fill:#b7b7b9; stroke:none;" d="M174 41L175 42L174 41z"/>
<path style="fill:#626163; stroke:none;" d="M104 42L105 43L104 42M120 42L121 43L120 42z"/>
<path style="fill:#b7b7b9; stroke:none;" d="M173 42L176 44L176 43L173 42z"/>
<path style="fill:#929294; stroke:none;" d="M103 43L104 44L103 43M164 43L165 44L164 43z"/>
<path style="fill:#626163; stroke:none;" d="M173 43L174 44L173 43M165 44L166 45L165 44z"/>
<path style="fill:#929294; stroke:none;" d="M174 44L175 45L174 44M102 45L103 46L102 45z"/>
<path style="fill:#626163; stroke:none;" d="M118 45L119 46L118 45z"/>
<path style="fill:#b7b7b9; stroke:none;" d="M165 45L166 46L165 45M175 45L177 50L178 50L179 48L175 45z"/>
<path style="fill:#626163; stroke:none;" d="M117 46L118 47L117 46M166 46L167 47L166 46z"/>
<path style="fill:#929294; stroke:none;" d="M175 46L176 47L175 46M101 47L102 48L101 47z"/>
<path style="fill:#b7b7b9; stroke:none;" d="M166 47L167 48L166 47z"/>
<path style="fill:#626163; stroke:none;" d="M101 48L102 49L101 48z"/>
<path style="fill:#929294; stroke:none;" d="M116 48L117 49L116 48z"/>
<path style="fill:#626163; stroke:none;" d="M167 48L168 49L167 48M176 48L177 49L176 48z"/>
<path style="fill:#fbfbfb; stroke:none;" d="M177 48L178 49L177 48z"/>
<path style="fill:#b7b7b9; stroke:none;" d="M100 49L101 50L100 49z"/>
<path style="fill:#626163; stroke:none;" d="M115 49L116 50L115 49z"/>
<path style="fill:#929294; stroke:none;" d="M167 49L168 50L167 49z"/>
<path style="fill:#626163; stroke:none;" d="M100 50L101 51L100 50z"/>
<path style="fill:#929294; stroke:none;" d="M115 50L116 51L115 50z"/>
<path style="fill:#b7b7b9; stroke:none;" d="M167 50L168 51L167 50z"/>
<path style="fill:#626163; stroke:none;" d="M177 50L178 51L177 50z"/>
<path style="fill:#b7b7b9; stroke:none;" d="M179 50L181 52L181 50L179 50z"/>
<path style="fill:#626163; stroke:none;" d="M168 51L169 52L168 51z"/>
<path style="fill:#b7b7b9; stroke:none;" d="M178 51L179 52L178 51M99 52L100 53L99 52z"/>
<path style="fill:#929294; stroke:none;" d="M114 52L115 53L114 52M168 52L169 53L168 52M178 52L179 53L178 52z"/>
<path style="fill:#626163; stroke:none;" d="M99 53L100 54L99 53z"/>
<path style="fill:#b7b7b9; stroke:none;" d="M168 53L169 54L168 53M179 53L180 54L179 53M182 53L180 57L182 53M98.3333 54.6667L98.6667 55.3333L98.3333 54.6667z"/>
<path style="fill:#626163; stroke:none;" d="M113 54L114 55L113 54M169.333 54.6667L169.667 55.3333L169.333 54.6667z"/>
<path style="fill:#929294; stroke:none;" d="M179 54L180 55L179 54M113 55L114 56L113 55z"/>
<path style="fill:#626163; stroke:none;" d="M179 55L180 56L179 55M98.3333 56.6667L98.6667 57.3333L98.3333 56.6667z"/>
<path style="fill:#b7b7b9; stroke:none;" d="M169.333 56.6667L169.667 57.3333L169.333 56.6667M183 56L184 57L183 56z"/>
<path style="fill:#626163; stroke:none;" d="M112 57L113 58L112 57z"/>
<path style="fill:#929294; stroke:none;" d="M180 57L181 58L180 57z"/>
<path style="fill:#b7b7b9; stroke:none;" d="M182 57L181 60C189.379 69.6522 188.291 90.6932 199 98L198 100L200 100C199.729 104.494 201.178 109.393 205 112L204 114L206 114C205.7 118.971 207.732 125.18 212 128L215 136L219 145L218 147L220 147L222 152L221 154L223 154L222 157L226 161L225 164L231 173L233 178C231.372 182.884 238.122 193.624 240 194L243 201C242.697 203.444 242.563 204.028 245 204L247 210L249 218L251 218L250 220L251 221L253 220L254 221L254 224L255 224L254 218L250 211L249 211L249 213L248 213L249 208C246.17 208 245.251 201.729 244 199C239.873 189.996 231.49 176.681 232 167L224 156L225 152L213 131C213.378 127.286 212.165 119.61 208 119L206 114C205.85 108.822 204.524 102.987 200 100L201 96C197.773 96 196.439 88.1151 195.833 85C193.898 75.0452 190.664 63.0966 182 57z"/>
<path style="fill:#929294; stroke:none;" d="M112 58L113 59L112 58z"/>
<path style="fill:#b7b7b9; stroke:none;" d="M97 59L98 60L97 59z"/>
<path style="fill:#626163; stroke:none;" d="M170.333 59.6667L170.667 60.3333L170.333 59.6667z"/>
<path style="fill:#929294; stroke:none;" d="M97 60L98 61L97 60z"/>
<path style="fill:#626163; stroke:none;" d="M181 60L182 61L181 60z"/>
<path style="fill:#fbfbfb; stroke:none;" d="M182 60L183 61L182 60z"/>
<path style="fill:#626163; stroke:none;" d="M97 61L97 64L98 64L97 61M111.333 61.6667L111.667 62.3333L111.333 61.6667z"/>
<path style="fill:#929294; stroke:none;" d="M170 61L171 62L170 61z"/>
<path style="fill:#b7b7b9; stroke:none;" d="M170 62L170 67L171 67L170 62z"/>
<path style="fill:#929294; stroke:none;" d="M182 62L183 63L182 62M111 63L111 66L112 66L111 63z"/>
<path style="fill:#626163; stroke:none;" d="M182 63L183 64L182 63z"/>
<path style="fill:#929294; stroke:none;" d="M183 64L184 65L183 64z"/>
<path style="fill:#626163; stroke:none;" d="M183 65L184 66L183 65z"/>
<path style="fill:#b7b7b9; stroke:none;" d="M96 66L96 75L97 75L96 66z"/>
<path style="fill:#929294; stroke:none;" d="M184 66L185 67L184 66M170 67L171 68L170 67z"/>
<path style="fill:#626163; stroke:none;" d="M184.333 67.6667L184.667 68.3333L184.333 67.6667M170.333 68.6667L170.667 69.3333L170.333 68.6667z"/>
<path style="fill:#929294; stroke:none;" d="M185 69L186 70L185 69z"/>
<path style="fill:#b7b7b9; stroke:none;" d="M169 70L170 71L169 70z"/>
<path style="fill:#626163; stroke:none;" d="M185 70L186 71L185 70M169 71L170 72L169 71M110 72L111 73L110 72M186.333 72.6667L186.667 73.3333L186.333 72.6667z"/>
<path style="fill:#b7b7b9; stroke:none;" d="M193 72L194 73L193 72z"/>
<path style="fill:#929294; stroke:none;" d="M168 73L169 74L168 73M187 74L188 75L187 74z"/>
<path style="fill:#b7b7b9; stroke:none;" d="M167 75L168 76L167 75z"/>
<path style="fill:#626163; stroke:none;" d="M187 75L188 76L187 75M167 76L168 77L167 76z"/>
<path style="fill:#929294; stroke:none;" d="M188 76L189 77L188 76M111 77L111 80L112 80L111 77z"/>
<path style="fill:#b7b7b9; stroke:none;" d="M166 77L167 78L166 77z"/>
<path style="fill:#626163; stroke:none;" d="M188 77L189 78L188 77M97 78L97 81L98 81L97 78M166 78L167 79L166 78z"/>
<path style="fill:#929294; stroke:none;" d="M189.333 78.6667L189.667 79.3333L189.333 78.6667z"/>
<path style="fill:#fbfbfb; stroke:none;" d="M192 79L193 80L192 79z"/>
<path style="fill:#626163; stroke:none;" d="M111.333 80.6667L111.667 81.3333L111.333 80.6667z"/>
<path style="fill:#929294; stroke:none;" d="M165 80L166 81L165 80z"/>
<path style="fill:#626163; stroke:none;" d="M189 80L190 81L189 80z"/>
<path style="fill:#929294; stroke:none;" d="M97 81L98 82L97 81z"/>
<path style="fill:#626163; stroke:none;" d="M165 81L166 82L165 81z"/>
<path style="fill:#929294; stroke:none;" d="M190 81L191 82L190 81z"/>
<path style="fill:#b7b7b9; stroke:none;" d="M97 82L98 83L97 82M164 82L165 83L164 82z"/>
<path style="fill:#626163; stroke:none;" d="M190 82L191 83L190 82z"/>
<path style="fill:#929294; stroke:none;" d="M112 83L113 84L112 83z"/>
<path style="fill:#626163; stroke:none;" d="M164 83L165 84L164 83M98.3333 84.6667L98.6667 85.3333L98.3333 84.6667M112 84L113 85L112 84z"/>
<path style="fill:#b7b7b9; stroke:none;" d="M163 84L164 85L163 84z"/>
<path style="fill:#626163; stroke:none;" d="M191 84L192 85L191 84z"/>
<path style="fill:#929294; stroke:none;" d="M163 85L164 86L163 85M98 86L99 87L98 86z"/>
<path style="fill:#626163; stroke:none;" d="M113.333 86.6667L113.667 87.3333L113.333 86.6667z"/>
<path style="fill:#929294; stroke:none;" d="M192 86L193 87L192 86z"/>
<path style="fill:#b7b7b9; stroke:none;" d="M98 87L99 88L98 87M162 87L163 88L162 87z"/>
<path style="fill:#626163; stroke:none;" d="M192 87L193 88L192 87z"/>
<path style="fill:#929294; stroke:none;" d="M193 88L194 89L193 88z"/>
<path style="fill:#b7b7b9; stroke:none;" d="M197 88L198 89L197 88z"/>
<path style="fill:#626163; stroke:none;" d="M99 89L100 90L99 89M114 89L115 90L114 89z"/>
<path style="fill:#b7b7b9; stroke:none;" d="M161 89L162 90L161 89z"/>
<path style="fill:#626163; stroke:none;" d="M193 89L194 90L193 89z"/>
<path style="fill:#929294; stroke:none;" d="M99 90L100 91L99 90z"/>
<path style="fill:#fbfbfb; stroke:none;" d="M116.333 90.6667L116.667 91.3333L116.333 90.6667z"/>
<path style="fill:#b7b7b9; stroke:none;" d="M120 90L121 91L120 90z"/>
<path style="fill:#626163; stroke:none;" d="M161 90L162 91L161 90z"/>
<path style="fill:#b7b7b9; stroke:none;" d="M99 91L100 92L99 91z"/>
<path style="fill:#626163; stroke:none;" d="M115 91L116 92L115 91z"/>
<path style="fill:#b7b7b9; stroke:none;" d="M160 91L161 92L160 91z"/>
<path style="fill:#929294; stroke:none;" d="M194 91L195 92L194 91z"/>
<path style="fill:#fbfbfb; stroke:none;" d="M117.333 92.6667L117.667 93.3333L117.333 92.6667z"/>
<path style="fill:#929294; stroke:none;" d="M160 92L161 93L160 92z"/>
<path style="fill:#626163; stroke:none;" d="M100 93L101 94L100 93z"/>
<path style="fill:#929294; stroke:none;" d="M116 93L117 94L116 93M195 93L196 94L195 93z"/>
<path style="fill:#b7b7b9; stroke:none;" d="M100 94L101 95L100 94z"/>
<path style="fill:#929294; stroke:none;" d="M159 94L160 95L159 94z"/>
<path style="fill:#626163; stroke:none;" d="M171 94L173 96L173 94L171 94M195 94L196 95L195 94z"/>
<path style="fill:#929294; stroke:none;" d="M117 95L118 96L117 95z"/>
<path style="fill:#fbfbfb; stroke:none;" d="M118 95L119 96L118 95z"/>
<path style="fill:#626163; stroke:none;" d="M159 95L160 96L159 95z"/>
<path style="fill:#b7b7b9; stroke:none;" d="M171 95L159 128L157 133C152.504 136.068 151.071 142.881 150 148L158 148L162 137L171 118L177 107L171 95z"/>
<path style="fill:#626163; stroke:none;" d="M101 96L102 97L101 96z"/>
<path style="fill:#b7b7b9; stroke:none;" d="M158 96L159 97L158 96z"/>
<path style="fill:#929294; stroke:none;" d="M170 96L171 97L170 96M172 96L173 97L172 96z"/>
<path style="fill:#626163; stroke:none;" d="M196 96L197 97L196 96z"/>
<path style="fill:#929294; stroke:none;" d="M101 97L102 98L101 97M118 97L119 98L118 97z"/>
<path style="fill:#fbfbfb; stroke:none;" d="M119 97L120 98L119 97z"/>
<path style="fill:#626163; stroke:none;" d="M158 97L159 98L158 97M173 97L174 98L173 97z"/>
<path style="fill:#b7b7b9; stroke:none;" d="M101 98L102 99L101 98M157 98L158 99L157 98z"/>
<path style="fill:#626163; stroke:none;" d="M169 98L170 99L169 98z"/>
<path style="fill:#929294; stroke:none;" d="M173 98L174 99L173 98M197 98L198 99L197 98z"/>
<path style="fill:#fbfbfb; stroke:none;" d="M198 98L199 99L198 98z"/>
<path style="fill:#626163; stroke:none;" d="M102 99L103 100L102 99z"/>
<path style="fill:#929294; stroke:none;" d="M119 99L120 100L119 99z"/>
<path style="fill:#fbfbfb; stroke:none;" d="M120 99L121 100L120 99z"/>
<path style="fill:#929294; stroke:none;" d="M157 99L158 100L157 99M169 99L170 100L169 99z"/>
<path style="fill:#b7b7b9; stroke:none;" d="M102 100L103 101L102 100z"/>
<path style="fill:#fbfbfb; stroke:none;" d="M121.333 100.667L121.667 101.333L121.333 100.667z"/>
<path style="fill:#626163; stroke:none;" d="M168 100L169 101L168 100M174 100L175 101L174 100z"/>
<path style="fill:#929294; stroke:none;" d="M198 100L199 101L198 100z"/>
<path style="fill:#fbfbfb; stroke:none;" d="M199.333 100.667L199.667 101.333L199.333 100.667z"/>
<path style="fill:#929294; stroke:none;" d="M120 101L121 102L120 101z"/>
<path style="fill:#b7b7b9; stroke:none;" d="M156 101L157 102L156 101z"/>
<path style="fill:#929294; stroke:none;" d="M168 101L169 102L168 101M174 101L175 102L174 101z"/>
<path style="fill:#626163; stroke:none;" d="M198 101L199 102L198 101z"/>
<path style="fill:#929294; stroke:none;" d="M103 102L104 103L103 102z"/>
<path style="fill:#626163; stroke:none;" d="M156 102L157 103L156 102M175 102L176 103L175 102z"/>
<path style="fill:#b7b7b9; stroke:none;" d="M103 103L104 104L103 103z"/>
<path style="fill:#929294; stroke:none;" d="M121 103L122 104L121 103z"/>
<path style="fill:#b7b7b9; stroke:none;" d="M155 103L156 104L155 103z"/>
<path style="fill:#626163; stroke:none;" d="M167 103L168 104L167 103z"/>
<path style="fill:#929294; stroke:none;" d="M175 103L176 104L175 103z"/>
<path style="fill:#626163; stroke:none;" d="M199 103L200 104L199 103M104 104L105 105L104 104M155 104L156 105L155 104M176 104L177 105L176 104z"/>
<path style="fill:#b7b7b9; stroke:none;" d="M104 105L105 106L104 105z"/>
<path style="fill:#626163; stroke:none;" d="M122 105L123 106L122 105z"/>
<path style="fill:#b7b7b9; stroke:none;" d="M154 105L155 106L154 105z"/>
<path style="fill:#626163; stroke:none;" d="M166 105L167 106L166 105z"/>
<path style="fill:#929294; stroke:none;" d="M176 105L177 106L176 105M200 105L201 106L200 105z"/>
<path style="fill:#626163; stroke:none;" d="M105 106L106 107L105 106z"/>
<path style="fill:#fbfbfb; stroke:none;" d="M124 106L125 107L124 106z"/>
<path style="fill:#929294; stroke:none;" d="M154 106L155 107L154 106z"/>
<path style="fill:#fbfbfb; stroke:none;" d="M175 106L158 148L194 148C188.904 135.578 184.52 115.5 175 106z"/>
<path style="fill:#626163; stroke:none;" d="M200 106L201 107L200 106z"/>
<path style="fill:#929294; stroke:none;" d="M105 107L106 108L105 107z"/>
<path style="fill:#626163; stroke:none;" d="M123 107L124 108L123 107M165 107L166 108L165 107M177 107L178 108L177 107z"/>
<path style="fill:#929294; stroke:none;" d="M201 107L202 108L201 107M124 108L125 109L124 108z"/>
<path style="fill:#fbfbfb; stroke:none;" d="M125 108L126 109L125 108z"/>
<path style="fill:#929294; stroke:none;" d="M153 108L154 109L153 108M165 108L166 109L165 108z"/>
<path style="fill:#b7b7b9; stroke:none;" d="M177 108L178 109L177 108z"/>
<path style="fill:#626163; stroke:none;" d="M201 108L202 109L201 108z"/>
<path style="fill:#929294; stroke:none;" d="M106 109L107 110L106 109z"/>
<path style="fill:#626163; stroke:none;" d="M124 109L125 110L124 109M153 109L154 110L153 109z"/>
<path style="fill:#fbfbfb; stroke:none;" d="M173 109L174 110L173 109z"/>
<path style="fill:#b7b7b9; stroke:none;" d="M176 109L177 110L176 109z"/>
<path style="fill:#626163; stroke:none;" d="M178 109L179 110L178 109z"/>
<path style="fill:#fbfbfb; stroke:none;" d="M203 109L204 110L203 109z"/>
<path style="fill:#626163; stroke:none;" d="M107 110L108 111L107 110z"/>
<path style="fill:#929294; stroke:none;" d="M125 110L126 111L125 110z"/>
<path style="fill:#b7b7b9; stroke:none;" d="M152 110L153 111L152 110z"/>
<path style="fill:#626163; stroke:none;" d="M164 110L165 111L164 110z"/>
<path style="fill:#929294; stroke:none;" d="M178 110L179 111L178 110z"/>
<path style="fill:#626163; stroke:none;" d="M202 110L203 111L202 110z"/>
<path style="fill:#929294; stroke:none;" d="M107 111L108 112L107 111z"/>
<path style="fill:#626163; stroke:none;" d="M152 111L153 112L152 111z"/>
<path style="fill:#fbfbfb; stroke:none;" d="M165 111L166 112L165 111M171 111L172 112L171 111z"/>
<path style="fill:#929294; stroke:none;" d="M126 112L127 113L126 112z"/>
<path style="fill:#b7b7b9; stroke:none;" d="M151 112L152 113L151 112z"/>
<path style="fill:#626163; stroke:none;" d="M163 112L164 113L163 112z"/>
<path style="fill:#929294; stroke:none;" d="M179 112L180 113L179 112z"/>
<path style="fill:#626163; stroke:none;" d="M203.333 112.667L203.667 113.333L203.333 112.667z"/>
<path style="fill:#fbfbfb; stroke:none;" d="M204 112L205 113L204 112z"/>
<path style="fill:#929294; stroke:none;" d="M108 113L109 114L108 113z"/>
<path style="fill:#fbfbfb; stroke:none;" d="M128 113L129 114L128 113z"/>
<path style="fill:#626163; stroke:none;" d="M151 113L152 114L151 113z"/>
<path style="fill:#929294; stroke:none;" d="M163 113L164 114L163 113z"/>
<path style="fill:#b7b7b9; stroke:none;" d="M179 113L180 114L179 113z"/>
<path style="fill:#626163; stroke:none;" d="M127 114L128 115L127 114M180 114L181 115L180 114z"/>
<path style="fill:#929294; stroke:none;" d="M204 114L205 115L204 114z"/>
<path style="fill:#fbfbfb; stroke:none;" d="M205.333 114.667L205.667 115.333L205.333 114.667z"/>
<path style="fill:#929294; stroke:none;" d="M109 115L110 116L109 115M128 115L129 116L128 115z"/>
<path style="fill:#fbfbfb; stroke:none;" d="M129 115L130 116L129 115z"/>
<path style="fill:#929294; stroke:none;" d="M150 115L151 116L150 115z"/>
<path style="fill:#626163; stroke:none;" d="M162 115L163 116L162 115z"/>
<path style="fill:#b7b7b9; stroke:none;" d="M180 115L181 116L180 115z"/>
<path style="fill:#626163; stroke:none;" d="M204 115L205 116L204 115M128 116L129 117L128 116M181 116L182 117L181 116z"/>
<path style="fill:#929294; stroke:none;" d="M110 117L111 118L110 117M129 117L130 118L129 117z"/>
<path style="fill:#b7b7b9; stroke:none;" d="M149 117L150 118L149 117z"/>
<path style="fill:#626163; stroke:none;" d="M161 117L162 118L161 117z"/>
<path style="fill:#fbfbfb; stroke:none;" d="M162 117L161 120L162 117z"/>
<path style="fill:#929294; stroke:none;" d="M181 117L182 118L181 117z"/>
<path style="fill:#626163; stroke:none;" d="M205 117L206 118L205 117z"/>
<path style="fill:#b7b7b9; stroke:none;" d="M130 118L132 120L130 118z"/>
<path style="fill:#626163; stroke:none;" d="M149 118L150 119L149 118z"/>
<path style="fill:#929294; stroke:none;" d="M161 118L162 119L161 118z"/>
<path style="fill:#b7b7b9; stroke:none;" d="M181 118L182 119L181 118z"/>
<path style="fill:#929294; stroke:none;" d="M111 119L112 120L111 119z"/>
<path style="fill:#626163; stroke:none;" d="M130 119L131 120L130 119z"/>
<path style="fill:#b7b7b9; stroke:none;" d="M133 119L132 122L133 119M148 119L149 120L148 119z"/>
<path style="fill:#626163; stroke:none;" d="M182 119L183 120L182 119z"/>
<path style="fill:#929294; stroke:none;" d="M206 119L207 120L206 119z"/>
<path style="fill:#626163; stroke:none;" d="M112 120L113 121L112 120z"/>
<path style="fill:#929294; stroke:none;" d="M131 120L132 121L131 120z"/>
<path style="fill:#626163; stroke:none;" d="M148 120L149 121L148 120z"/>
<path style="fill:#929294; stroke:none;" d="M160 120L161 121L160 120z"/>
<path style="fill:#b7b7b9; stroke:none;" d="M182 120L183 121L182 120z"/>
<path style="fill:#929294; stroke:none;" d="M112 121L113 122L112 121z"/>
<path style="fill:#626163; stroke:none;" d="M131 121L132 122L131 121z"/>
<path style="fill:#b7b7b9; stroke:none;" d="M147 121L148 122L147 121z"/>
<path style="fill:#626163; stroke:none;" d="M183 121L184 122L183 121z"/>
<path style="fill:#929294; stroke:none;" d="M207 121L208 122L207 121z"/>
<path style="fill:#b7b7b9; stroke:none;" d="M112 122L113 123L112 122z"/>
<path style="fill:#929294; stroke:none;" d="M132 122L133 123L132 122z"/>
<path style="fill:#626163; stroke:none;" d="M147 122L148 123L147 122M159 122L160 123L159 122z"/>
<path style="fill:#b7b7b9; stroke:none;" d="M183 122L184 123L183 122z"/>
<path style="fill:#626163; stroke:none;" d="M207 122L208 123L207 122z"/>
<path style="fill:#929294; stroke:none;" d="M113 123L114 124L113 123z"/>
<path style="fill:#b7b7b9; stroke:none;" d="M133 123L133 124L136 125L136 124L136 123L133 123z"/>
<path style="fill:#626163; stroke:none;" d="M133 124L134 125L133 124z"/>
<path style="fill:#929294; stroke:none;" d="M146 124L147 125L146 124z"/>
<path style="fill:#626163; stroke:none;" d="M158 124L159 125L158 124z"/>
<path style="fill:#929294; stroke:none;" d="M184 124L185 125L184 124z"/>
<path style="fill:#626163; stroke:none;" d="M208.333 124.667L208.667 125.333L208.333 124.667z"/>
<path style="fill:#929294; stroke:none;" d="M114 125L115 126L114 125M134 125L135 126L134 125z"/>
<path style="fill:#b7b7b9; stroke:none;" d="M136 125L135 127L137 127L136 125z"/>
<path style="fill:#929294; stroke:none;" d="M158 125L159 126L158 125z"/>
<path style="fill:#626163; stroke:none;" d="M134 126L135 127L134 126z"/>
<path style="fill:#929294; stroke:none;" d="M145 126L146 127L145 126z"/>
<path style="fill:#626163; stroke:none;" d="M157 126L158 127L157 126M185 126L186 127L185 126z"/>
<path style="fill:#929294; stroke:none;" d="M209 126L210 127L209 126M115 127L116 128L115 127M135 127L136 128L135 127z"/>
<path style="fill:#b7b7b9; stroke:none;" d="M137 127L138 128L137 127z"/>
<path style="fill:#626163; stroke:none;" d="M145 127L146 128L145 127z"/>
<path style="fill:#929294; stroke:none;" d="M157 127L158 128L157 127z"/>
<path style="fill:#fbfbfb; stroke:none;" d="M158 127L159 128L158 127z"/>
<path style="fill:#b7b7b9; stroke:none;" d="M185 127L186 128L185 127z"/>
<path style="fill:#626163; stroke:none;" d="M209 127L210 128L209 127z"/>
<path style="fill:#b7b7b9; stroke:none;" d="M136 128L136 129L140 131L139 128L136 128M144 128L145 129L144 128z"/>
<path style="fill:#626163; stroke:none;" d="M186 128L187 129L186 128z"/>
<path style="fill:#929294; stroke:none;" d="M210 128L211 129L210 128z"/>
<path style="fill:#fbfbfb; stroke:none;" d="M211 128L212 129L211 128z"/>
<path style="fill:#b7b7b9; stroke:none;" d="M215 128L216 129L215 128z"/>
<path style="fill:#929294; stroke:none;" d="M116 129L117 130L116 129z"/>
<path style="fill:#626163; stroke:none;" d="M136 129L137 130L136 129M144 129L145 130L144 129M156 129L157 130L156 129z"/>
<path style="fill:#929294; stroke:none;" d="M186 129L187 130L186 129z"/>
<path style="fill:#626163; stroke:none;" d="M210 129L211 130L210 129M117 130L118 131L117 130z"/>
<path style="fill:#929294; stroke:none;" d="M137 130L138 131L137 130z"/>
<path style="fill:#b7b7b9; stroke:none;" d="M143 130L144 131L143 130z"/>
<path style="fill:#929294; stroke:none;" d="M117 131L118 132L117 131z"/>
<path style="fill:#b7b7b9; stroke:none;" d="M138 131L139 132L138 131M140.333 131.667L140.667 132.333L140.333 131.667z"/>
<path style="fill:#626163; stroke:none;" d="M143 131L144 132L143 131M155 131L156 132L155 131M187 131L188 132L187 131M211 131L212 132L211 131z"/>
<path style="fill:#b7b7b9; stroke:none;" d="M117 132L118 133L117 132z"/>
<path style="fill:#626163; stroke:none;" d="M138 132L139 133L138 132z"/>
<path style="fill:#b7b7b9; stroke:none;" d="M142 132L143 133L142 132z"/>
<path style="fill:#929294; stroke:none;" d="M155 132L156 133L155 132z"/>
<path style="fill:#fbfbfb; stroke:none;" d="M156 132L157 133L156 132z"/>
<path style="fill:#b7b7b9; stroke:none;" d="M187 132L188 133L187 132z"/>
<path style="fill:#929294; stroke:none;" d="M118 133L119 134L118 133z"/>
<path style="fill:#b7b7b9; stroke:none;" d="M139 133L142 135L142 134L139 133z"/>
<path style="fill:#929294; stroke:none;" d="M142 133L143 134L142 133z"/>
<path style="fill:#626163; stroke:none;" d="M188 133L189 134L188 133z"/>
<path style="fill:#929294; stroke:none;" d="M212 133L213 134L212 133z"/>
<path style="fill:#b7b7b9; stroke:none;" d="M118 134L119 135L118 134z"/>
<path style="fill:#626163; stroke:none;" d="M139 134L140 135L139 134z"/>
<path style="fill:#929294; stroke:none;" d="M154 134L155 135L154 134M188 134L189 135L188 134z"/>
<path style="fill:#626163; stroke:none;" d="M212 134L213 135L212 134z"/>
<path style="fill:#929294; stroke:none;" d="M119 135L120 136L119 135M140.667 135.333L141.333 135.667L140.667 135.333z"/>
<path style="fill:#626163; stroke:none;" d="M153 136L154 137L153 136z"/>
<path style="fill:#929294; stroke:none;" d="M189 136L190 137L189 136z"/>
<path style="fill:#626163; stroke:none;" d="M213 136L214 137L213 136z"/>
<path style="fill:#fbfbfb; stroke:none;" d="M214 136L215 137L214 136z"/>
<path style="fill:#626163; stroke:none;" d="M120 137L121 138L120 137z"/>
<path style="fill:#929294; stroke:none;" d="M153 137L154 138L153 137z"/>
<path style="fill:#b7b7b9; stroke:none;" d="M189 137L190 138L189 137M120 138L121 139L120 138z"/>
<path style="fill:#626163; stroke:none;" d="M152 138L153 139L152 138M190 138L191 139L190 138M214 138L215 139L214 138z"/>
<path style="fill:#929294; stroke:none;" d="M121 139L122 140L121 139M152 139L153 140L152 139z"/>
<path style="fill:#b7b7b9; stroke:none;" d="M190 139L191 140L190 139M121 140L122 141L121 140z"/>
<path style="fill:#626163; stroke:none;" d="M191 140L192 141L191 140z"/>
<path style="fill:#929294; stroke:none;" d="M215 140L216 141L215 140M122 141L123 142L122 141z"/>
<path style="fill:#626163; stroke:none;" d="M151 141L152 142L151 141z"/>
<path style="fill:#929294; stroke:none;" d="M191 141L192 142L191 141z"/>
<path style="fill:#626163; stroke:none;" d="M215 141L216 142L215 141z"/>
<path style="fill:#b7b7b9; stroke:none;" d="M122 142L123 143L122 142M191 142L192 143L191 142z"/>
<path style="fill:#929294; stroke:none;" d="M216 142L217 143L216 142z"/>
<path style="fill:#626163; stroke:none;" d="M123 143L124 144L123 143M150 143L151 144L150 143M192 143L193 144L192 143M216 143L217 144L216 143z"/>
<path style="fill:#929294; stroke:none;" d="M150.333 144.667L150.667 145.333L150.333 144.667z"/>
<path style="fill:#b7b7b9; stroke:none;" d="M192 144L193 145L192 144z"/>
<path style="fill:#626163; stroke:none;" d="M124 145L125 146L124 145M193 145L194 146L193 145z"/>
<path style="fill:#929294; stroke:none;" d="M217 145L218 146L217 145z"/>
<path style="fill:#fbfbfb; stroke:none;" d="M218 145L219 146L218 145z"/>
<path style="fill:#626163; stroke:none;" d="M149 146L150 147L149 146z"/>
<path style="fill:#929294; stroke:none;" d="M193 146L194 147L193 146z"/>
<path style="fill:#626163; stroke:none;" d="M125 147L126 148L125 147z"/>
<path style="fill:#929294; stroke:none;" d="M149 147L150 148L149 147M218 147L219 148L218 147z"/>
<path style="fill:#fbfbfb; stroke:none;" d="M219.333 147.667L219.667 148.333L219.333 147.667z"/>
<path style="fill:#b7b7b9; stroke:none;" d="M125 148L126 149L125 148z"/>
<path style="fill:#626163; stroke:none;" d="M149 148L149 149L190 149C179.25 144.489 160.696 148 149 148z"/>
<path style="fill:#929294; stroke:none;" d="M190 148L191 149L190 148z"/>
<path style="fill:#626163; stroke:none;" d="M191.667 148.333L192.333 148.667L191.667 148.333z"/>
<path style="fill:#929294; stroke:none;" d="M193 148L194 149L193 148z"/>
<path style="fill:#626163; stroke:none;" d="M218 148L219 149L218 148M126 149L127 150L126 149z"/>
<path style="fill:#b7b7b9; stroke:none;" d="M126 150L127 151L126 150z"/>
<path style="fill:#626163; stroke:none;" d="M219 150L220 151L219 150M127 151L128 152L127 151z"/>
<path style="fill:#b7b7b9; stroke:none;" d="M127 152L128 153L127 152z"/>
<path style="fill:#929294; stroke:none;" d="M220 152L221 153L220 152z"/>
<path style="fill:#fbfbfb; stroke:none;" d="M221 152L222 153L221 152z"/>
<path style="fill:#626163; stroke:none;" d="M128 153L129 154L128 153M220 153L221 154L220 153z"/>
<path style="fill:#b7b7b9; stroke:none;" d="M128 154L129 155L128 154z"/>
<path style="fill:#929294; stroke:none;" d="M221 154L222 155L221 154z"/>
<path style="fill:#fbfbfb; stroke:none;" d="M222.333 154.667L222.667 155.333L222.333 154.667z"/>
<path style="fill:#626163; stroke:none;" d="M129 155L130 156L129 155M221 155L222 156L221 155z"/>
<path style="fill:#b7b7b9; stroke:none;" d="M129 156L130 157L129 156z"/>
<path style="fill:#626163; stroke:none;" d="M130 157L131 158L130 157M222 157L223 158L222 157z"/>
<path style="fill:#fbfbfb; stroke:none;" d="M223 157L224 158L223 157z"/>
<path style="fill:#b7b7b9; stroke:none;" d="M130 158L131 159L130 158z"/>
<path style="fill:#929294; stroke:none;" d="M223 159L224 160L223 159M130 160L131 161L130 160z"/>
<path style="fill:#626163; stroke:none;" d="M130 161L131 162L130 161z"/>
<path style="fill:#929294; stroke:none;" d="M224 161L225 162L224 161z"/>
<path style="fill:#fbfbfb; stroke:none;" d="M225.333 161.667L225.667 162.333L225.333 161.667z"/>
<path style="fill:#b7b7b9; stroke:none;" d="M129 162L130 163L129 162z"/>
<path style="fill:#626163; stroke:none;" d="M224 162L225 163L224 162M129 163L130 164L129 163z"/>
<path style="fill:#b7b7b9; stroke:none;" d="M128 164L129 165L128 164z"/>
<path style="fill:#626163; stroke:none;" d="M225 164L226 165L225 164z"/>
<path style="fill:#fbfbfb; stroke:none;" d="M226 164L227 165L226 164z"/>
<path style="fill:#929294; stroke:none;" d="M128 165L129 166L128 165z"/>
<path style="fill:#626163; stroke:none;" d="M160 165L162 168L160 165z"/>
<path style="fill:#929294; stroke:none;" d="M161 165L161 166L202 166C191.25 161.489 172.696 165 161 165z"/>
<path style="fill:#b7b7b9; stroke:none;" d="M127 166L128 167L127 166M161 166L161 167L170 180C169.956 185.843 173.941 191.529 175.947 197C179.604 206.974 182.183 217.381 182.91 228C185.081 259.693 159.472 288.693 129 294.539C116.45 296.947 104.201 292.987 92 295C91.5311 292.038 88.5941 292.471 86 293L81 292L81 291L83 290L78 288L78 289L81 290L79 292C91.2896 295.931 102.782 301.534 116 301.957C150.584 303.062 185.269 280.78 188.83 244C190.078 231.116 186.804 218.102 182.907 206C181.008 200.102 176.728 194.293 177 188C160.402 170.39 191.869 169.35 203 172C202.472 165.222 197.685 166 192 166L161 166z"/>
<path style="fill:#626163; stroke:none;" d="M202 166L203 167L202 166z"/>
<path style="fill:#929294; stroke:none;" d="M226 166L227 167L226 166M127 167L128 168L127 167M162.333 167.667L162.667 168.333L162.333 167.667z"/>
<path style="fill:#626163; stroke:none;" d="M226 167L227 168L226 167M203 168L204 169L203 168z"/>
<path style="fill:#929294; stroke:none;" d="M227 168L228 169L227 168z"/>
<path style="fill:#b7b7b9; stroke:none;" d="M126 169L127 170L126 169z"/>
<path style="fill:#626163; stroke:none;" d="M162 169L163 170L162 169z"/>
<path style="fill:#929294; stroke:none;" d="M203 169L204 170L203 169z"/>
<path style="fill:#626163; stroke:none;" d="M227 169L228 170L227 169M126 170L127 171L126 170z"/>
<path style="fill:#929294; stroke:none;" d="M163 170L164 171L163 170z"/>
<path style="fill:#626163; stroke:none;" d="M204 170L205 171L204 170z"/>
<path style="fill:#b7b7b9; stroke:none;" d="M125 171L126 172L125 171z"/>
<path style="fill:#626163; stroke:none;" d="M163 171L164 172L163 171z"/>
<path style="fill:#929294; stroke:none;" d="M204 171L205 172L204 171M228 171L229 172L228 171z"/>
<path style="fill:#626163; stroke:none;" d="M125 172L126 173L125 172z"/>
<path style="fill:#929294; stroke:none;" d="M164 172L165 173L164 172z"/>
<path style="fill:#b7b7b9; stroke:none;" d="M204 172L205 173L204 172z"/>
<path style="fill:#626163; stroke:none;" d="M205 173L206 174L205 173z"/>
<path style="fill:#929294; stroke:none;" d="M229 173L230 174L229 173z"/>
<path style="fill:#fbfbfb; stroke:none;" d="M230 173L231 174L230 173z"/>
<path style="fill:#929294; stroke:none;" d="M124 174L125 175L124 174z"/>
<path style="fill:#626163; stroke:none;" d="M137.333 174.667L137.667 175.333L137.333 174.667z"/>
<path style="fill:#929294; stroke:none;" d="M138 174L139 175L138 174z"/>
<path style="fill:#626163; stroke:none;" d="M165 174L166 175L165 174z"/>
<path style="fill:#b7b7b9; stroke:none;" d="M205 174L206 175L205 174z"/>
<path style="fill:#626163; stroke:none;" d="M229 174L230 175L229 174z"/>
<path style="fill:#b7b7b9; stroke:none;" d="M138 175C134.671 182.033 128.033 192.161 129 200C124.539 202.948 121.428 211.683 121.243 216.996C121.143 219.876 123.096 224.009 126.687 223.029C129.582 222.239 129.621 216.347 130.439 214C133.684 204.687 138.27 196.047 142 187L144 189L145 188L143 187L144 185L142 185L138 175z"/>
<path style="fill:#626163; stroke:none;" d="M139 175L140 176L139 175M206 175L207 176L206 175z"/>
<path style="fill:#fbfbfb; stroke:none;" d="M231 175L232 176L231 175z"/>
<path style="fill:#929294; stroke:none;" d="M123 176L124 177L123 176M139 176L140 177L139 176z"/>
<path style="fill:#626163; stroke:none;" d="M166 176L167 177L166 176z"/>
<path style="fill:#929294; stroke:none;" d="M206 176L207 177L206 176z"/>
<path style="fill:#626163; stroke:none;" d="M230 176L231 177L230 176M123 177L124 178L123 177M136 177L137 178L136 177M140 177L141 178L140 177z"/>
<path style="fill:#b7b7b9; stroke:none;" d="M206 177L207 178L206 177M122 178L123 179L122 178z"/>
<path style="fill:#929294; stroke:none;" d="M136 178L137 179L136 178M140 178L141 179L140 178z"/>
<path style="fill:#626163; stroke:none;" d="M167 178L168 179L167 178M207 178L208 179L207 178z"/>
<path style="fill:#929294; stroke:none;" d="M231 178L232 179L231 178z"/>
<path style="fill:#fbfbfb; stroke:none;" d="M232 178L233 179L232 178z"/>
<path style="fill:#626163; stroke:none;" d="M122 179L123 180L122 179M135 179L136 180L135 179z"/>
<path style="fill:#b7b7b9; stroke:none;" d="M207 179L208 180L207 179z"/>
<path style="fill:#626163; stroke:none;" d="M231 179L232 180L231 179z"/>
<path style="fill:#b7b7b9; stroke:none;" d="M121 180L122 181L121 180z"/>
<path style="fill:#929294; stroke:none;" d="M135 180L136 181L135 180M141 180L142 181L141 180z"/>
<path style="fill:#626163; stroke:none;" d="M168 180L169 181L168 180z"/>
<path style="fill:#fbfbfb; stroke:none;" d="M169 180L170 181L169 180z"/>
<path style="fill:#626163; stroke:none;" d="M208 180L209 181L208 180z"/>
<path style="fill:#929294; stroke:none;" d="M232 180L233 181L232 180z"/>
<path style="fill:#626163; stroke:none;" d="M121 181L122 182L121 181z"/>
<path style="fill:#929294; stroke:none;" d="M208 181L209 182L208 181z"/>
<path style="fill:#626163; stroke:none;" d="M232 181L233 182L232 181z"/>
<path style="fill:#b7b7b9; stroke:none;" d="M120 182L121 183L120 182z"/>
<path style="fill:#626163; stroke:none;" d="M134 182L135 183L134 182z"/>
<path style="fill:#929294; stroke:none;" d="M142 182L143 183L142 182z"/>
<path style="fill:#626163; stroke:none;" d="M169 182L170 183L169 182z"/>
<path style="fill:#929294; stroke:none;" d="M233 182L234 183L233 182z"/>
<path style="fill:#626163; stroke:none;" d="M120 183L121 184L120 183M209 183L210 184L209 183M233 183L234 184L233 183M133 184L134 185L133 184z"/>
<path style="fill:#fbfbfb; stroke:none;" d="M142 184L143 185L142 184z"/>
<path style="fill:#929294; stroke:none;" d="M143 184L144 185L143 184z"/>
<path style="fill:#626163; stroke:none;" d="M170 184L171 185L170 184z"/>
<path style="fill:#fbfbfb; stroke:none;" d="M172 184L173 185L172 184z"/>
<path style="fill:#b7b7b9; stroke:none;" d="M209 184L210 185L209 184z"/>
<path style="fill:#fbfbfb; stroke:none;" d="M235 184L236 185L235 184z"/>
<path style="fill:#929294; stroke:none;" d="M119 185L120 186L119 185M133 185L134 186L133 185z"/>
<path style="fill:#626163; stroke:none;" d="M210 185L211 186L210 185z"/>
<path style="fill:#929294; stroke:none;" d="M234 185L235 186L234 185z"/>
<path style="fill:#626163; stroke:none;" d="M132 186L133 187L132 186z"/>
<path style="fill:#fbfbfb; stroke:none;" d="M143 186L144 187L143 186z"/>
<path style="fill:#929294; stroke:none;" d="M144 186L145 187L144 186M171 186L172 187L171 186M210 186L211 187L210 186M118 187L119 188L118 187M132 187L133 188L132 187z"/>
<path style="fill:#fbfbfb; stroke:none;" d="M142 187L127 223L127 224C130.587 224.154 136.635 223.958 139.681 226.027C144.575 229.352 139.689 233.412 136 234L136 235L143 238L140 236L139 236C128.508 244.062 106.907 238.505 95 237L95 236L96 234L104 234L104 233C95.2619 233 85.1348 236.406 85 225C89.1774 224.988 96.3265 225.539 99.5887 222.4C105.038 217.157 94.8188 207.713 91 205L94 209L90 210L91 208L73 215L74 212L73 211L69 210L82 205L82 204C66.706 205.259 59.6043 217.924 59 232L60 232L61 224L64 224L62 219L63 219L64 222L65 222L73 215C65.5341 224.018 63.7721 233.377 63 245L64 245L64 241L65 241L62 253L63 253L64 250L65 250L64 254L66 253L66 254L64 257C69.5524 259.062 72.3735 267.845 78 272C90.611 281.313 111.136 284.208 126 279.667C158.628 269.697 161.574 241.961 154.333 213C152.062 203.916 149.333 192.5 142 187z"/>
<path style="fill:#929294; stroke:none;" d="M235 187L236 188L235 187M145 188L146 189L145 188M172 188L173 189L172 188M211 188L212 189L211 188z"/>
<path style="fill:#626163; stroke:none;" d="M235 188L236 189L235 188z"/>
<path style="fill:#929294; stroke:none;" d="M117 189L118 190L117 189z"/>
<path style="fill:#626163; stroke:none;" d="M131 189L132 190L131 189M172 189L173 190L172 189z"/>
<path style="fill:#b7b7b9; stroke:none;" d="M211 189L212 190L211 189z"/>
<path style="fill:#929294; stroke:none;" d="M236 189L237 190L236 189z"/>
<path style="fill:#626163; stroke:none;" d="M117 190L118 191L117 190z"/>
<path style="fill:#929294; stroke:none;" d="M146 190L147 191L146 190M173 190L174 191L173 190z"/>
<path style="fill:#626163; stroke:none;" d="M212 190L213 191L212 190M236 190L237 191L236 190z"/>
<path style="fill:#b7b7b9; stroke:none;" d="M116 191L117 192L116 191z"/>
<path style="fill:#626163; stroke:none;" d="M130 191L131 192L130 191z"/>
<path style="fill:#b7b7b9; stroke:none;" d="M141 191L142 192L141 191z"/>
<path style="fill:#626163; stroke:none;" d="M173 191L174 192L173 191z"/>
<path style="fill:#929294; stroke:none;" d="M212 191L213 192L212 191z"/>
<path style="fill:#b7b7b9; stroke:none;" d="M86 192L87 193L86 192z"/>
<path style="fill:#626163; stroke:none;" d="M116 192L117 193L116 192z"/>
<path style="fill:#929294; stroke:none;" d="M147 192L148 193L147 192M237 192L238 193L237 192z"/>
<path style="fill:#fbfbfb; stroke:none;" d="M238 192L239 193L238 192z"/>
<path style="fill:#b7b7b9; stroke:none;" d="M79 193L80 194L79 193z"/>
<path style="fill:#929294; stroke:none;" d="M80 193L81 194L80 193z"/>
<path style="fill:#626163; stroke:none;" d="M81.6667 193.333L82.3333 193.667L81.6667 193.333M90.6667 193.333L91.3333 193.667L90.6667 193.333z"/>
<path style="fill:#929294; stroke:none;" d="M92 193L93 194L92 193z"/>
<path style="fill:#b7b7b9; stroke:none;" d="M93 193L94 194L93 193M115 193L116 194L115 193z"/>
<path style="fill:#626163; stroke:none;" d="M129 193L130 194L129 193z"/>
<path style="fill:#b7b7b9; stroke:none;" d="M147 193L148 194L147 193z"/>
<path style="fill:#929294; stroke:none;" d="M174 193L175 194L174 193z"/>
<path style="fill:#626163; stroke:none;" d="M213 193L214 194L213 193M237 193L238 194L237 193z"/>
<path style="fill:#929294; stroke:none;" d="M76 194L77 195L76 194z"/>
<path style="fill:#626163; stroke:none;" d="M77 194L78 195L77 194M95 194L96 195L95 194z"/>
<path style="fill:#b7b7b9; stroke:none;" d="M96 194L97 195L96 194z"/>
<path style="fill:#626163; stroke:none;" d="M115 194L116 195L115 194z"/>
<path style="fill:#929294; stroke:none;" d="M129 194L130 195L129 194z"/>
<path style="fill:#626163; stroke:none;" d="M148 194L149 195L148 194M174 194L175 195L174 194z"/>
<path style="fill:#b7b7b9; stroke:none;" d="M213 194L214 195L213 194z"/>
<path style="fill:#929294; stroke:none;" d="M238 194L239 195L238 194z"/>
<path style="fill:#fbfbfb; stroke:none;" d="M239 194L240 195L239 194z"/>
<path style="fill:#626163; stroke:none;" d="M74 195L75 196L74 195z"/>
<path style="fill:#929294; stroke:none;" d="M98 195L99 196L98 195z"/>
<path style="fill:#b7b7b9; stroke:none;" d="M114 195L115 196L114 195M148 195L149 196L148 195z"/>
<path style="fill:#929294; stroke:none;" d="M175 195L176 196L175 195z"/>
<path style="fill:#626163; stroke:none;" d="M214 195L215 196L214 195M238 195L239 196L238 195z"/>
<path style="fill:#929294; stroke:none;" d="M72 196L73 197L72 196M100 196L101 197L100 196z"/>
<path style="fill:#626163; stroke:none;" d="M114 196L115 197L114 196M128 196L129 197L128 196M149 196L150 197L149 196M175 196L176 197L175 196z"/>
<path style="fill:#929294; stroke:none;" d="M214 196L215 197L214 196M70 197L71 198L70 197z"/>
<path style="fill:#626163; stroke:none;" d="M101 197L102 198L101 197z"/>
<path style="fill:#b7b7b9; stroke:none;" d="M102 197L103 198L102 197M113 197L114 198L113 197z"/>
<path style="fill:#929294; stroke:none;" d="M149 197L150 198L149 197z"/>
<path style="fill:#626163; stroke:none;" d="M239 197L240 198L239 197z"/>
<path style="fill:#b7b7b9; stroke:none;" d="M68 198L69 199L68 198z"/>
<path style="fill:#626163; stroke:none;" d="M69 198L70 199L69 198z"/>
<path style="fill:#929294; stroke:none;" d="M103 198L104 199L103 198M113 198L114 199L113 198z"/>
<path style="fill:#626163; stroke:none;" d="M127 198L128 199L127 198z"/>
<path style="fill:#b7b7b9; stroke:none;" d="M149 198L150 199L149 198z"/>
<path style="fill:#929294; stroke:none;" d="M176 198L177 199L176 198M215 198L216 199L215 198M67 199L68 200L67 199z"/>
<path style="fill:#626163; stroke:none;" d="M104 199L105 200L104 199z"/>
<path style="fill:#929294; stroke:none;" d="M127 199L128 200L127 199z"/>
<path style="fill:#fbfbfb; stroke:none;" d="M128 199L129 200L128 199z"/>
<path style="fill:#626163; stroke:none;" d="M150 199L151 200L150 199M176 199L177 200L176 199z"/>
<path style="fill:#b7b7b9; stroke:none;" d="M215 199L216 200L215 199z"/>
<path style="fill:#929294; stroke:none;" d="M240 199L241 200L240 199z"/>
<path style="fill:#626163; stroke:none;" d="M66 200L67 201L66 200z"/>
<path style="fill:#b7b7b9; stroke:none;" d="M106 200L107 201L106 200z"/>
<path style="fill:#929294; stroke:none;" d="M112 200L113 201L112 200z"/>
<path style="fill:#626163; stroke:none;" d="M126 200L127 201L126 200z"/>
<path style="fill:#b7b7b9; stroke:none;" d="M150 200L151 201L150 200z"/>
<path style="fill:#626163; stroke:none;" d="M216 200L217 201L216 200M65 201L66 202L65 201z"/>
<path style="fill:#b7b7b9; stroke:none;" d="M107 201L108 202L107 201z"/>
<path style="fill:#929294; stroke:none;" d="M126 201L127 202L126 201M177 201L178 202L177 201M216 201L217 202L216 201M241 201L242 202L241 201z"/>
<path style="fill:#fbfbfb; stroke:none;" d="M242 201L243 202L242 201z"/>
<path style="fill:#b7b7b9; stroke:none;" d="M63 202L62 204L63 202z"/>
<path style="fill:#626163; stroke:none;" d="M64 202L65 203L64 202z"/>
<path style="fill:#929294; stroke:none;" d="M108 202L109 203L108 202M111 202L112 203L111 202M151 202L152 203L151 202z"/>
<path style="fill:#626163; stroke:none;" d="M177 202L178 203L177 202M241 202L242 203L241 202M63 203L64 204L63 203M78 203L79 204L78 203z"/>
<path style="fill:#929294; stroke:none;" d="M79 203L80 204L79 203z"/>
<path style="fill:#b7b7b9; stroke:none;" d="M80 203L80 204L82 204L82 205L69 210L73 211L74 212L73 215L91 208L90 210L91 210L94 209C90.2128 203.984 86.0651 203.051 80 203z"/>
<path style="fill:#929294; stroke:none;" d="M87 203L88 204L87 203z"/>
<path style="fill:#626163; stroke:none;" d="M88.6667 203.333L89.3333 203.667L88.6667 203.333z"/>
<path style="fill:#929294; stroke:none;" d="M109 203L110 204L109 203z"/>
<path style="fill:#626163; stroke:none;" d="M111 203L112 204L111 203z"/>
<path style="fill:#929294; stroke:none;" d="M125 203L126 204L125 203z"/>
<path style="fill:#b7b7b9; stroke:none;" d="M151 203L152 204L151 203z"/>
<path style="fill:#929294; stroke:none;" d="M217 203L218 204L217 203M242 203L243 204L242 203z"/>
<path style="fill:#626163; stroke:none;" d="M75 204L76 205L75 204z"/>
<path style="fill:#b7b7b9; stroke:none;" d="M76.6667 204.333L77.3333 204.667L76.6667 204.333z"/>
<path style="fill:#929294; stroke:none;" d="M90 204L91 205L90 204z"/>
<path style="fill:#626163; stroke:none;" d="M91 204L92 205L91 204M110 204L111 205L110 204M152 204L153 205L152 204z"/>
<path style="fill:#929294; stroke:none;" d="M178 204L179 205L178 204z"/>
<path style="fill:#b7b7b9; stroke:none;" d="M217 204L218 205L217 204z"/>
<path style="fill:#626163; stroke:none;" d="M242 204L243 205L242 204z"/>
<path style="fill:#fbfbfb; stroke:none;" d="M244.333 204.667L244.667 205.333L244.333 204.667z"/>
<path style="fill:#626163; stroke:none;" d="M61 205L62 206L61 205z"/>
<path style="fill:#929294; stroke:none;" d="M73 205L74 206L73 205M92 205L93 206L92 205z"/>
<path style="fill:#626163; stroke:none;" d="M124 205L125 206L124 205z"/>
<path style="fill:#929294; stroke:none;" d="M152 205L153 206L152 205z"/>
<path style="fill:#626163; stroke:none;" d="M178.333 205.667L178.667 206.333L178.333 205.667M218 205L219 206L218 205z"/>
<path style="fill:#929294; stroke:none;" d="M243 205L244 206L243 205z"/>
<path style="fill:#626163; stroke:none;" d="M60 206L61 207L60 206M71 206L72 207L71 206z"/>
<path style="fill:#b7b7b9; stroke:none;" d="M72 206L73 207L72 206z"/>
<path style="fill:#fbfbfb; stroke:none;" d="M81 206L82 207L81 206z"/>
<path style="fill:#b7b7b9; stroke:none;" d="M93 206L98 211L93 206z"/>
<path style="fill:#626163; stroke:none;" d="M94 206L95 207L94 206z"/>
<path style="fill:#929294; stroke:none;" d="M124 206L125 207L124 206z"/>
<path style="fill:#b7b7b9; stroke:none;" d="M152 206L153 207L152 206z"/>
<path style="fill:#929294; stroke:none;" d="M218 206L219 207L218 206z"/>
<path style="fill:#626163; stroke:none;" d="M243 206L244 207L243 206M59 207L60 208L59 207z"/>
<path style="fill:#929294; stroke:none;" d="M70 207L71 208L70 207z"/>
<path style="fill:#626163; stroke:none;" d="M95 207L96 208L95 207z"/>
<path style="fill:#929294; stroke:none;" d="M58 208L59 209L58 208z"/>
<path style="fill:#b7b7b9; stroke:none;" d="M69 208L70 209L69 208z"/>
<path style="fill:#626163; stroke:none;" d="M96 208L97 209L96 208z"/>
<path style="fill:#929294; stroke:none;" d="M123 208L124 209L123 208M153 208L154 209L153 208M179 208L180 209L179 208z"/>
<path style="fill:#fbfbfb; stroke:none;" d="M182 208L183 209L182 208z"/>
<path style="fill:#929294; stroke:none;" d="M219 208L220 209L219 208z"/>
<path style="fill:#626163; stroke:none;" d="M244 208L245 209L244 208z"/>
<path style="fill:#b7b7b9; stroke:none;" d="M57 209L58 210L57 209z"/>
<path style="fill:#626163; stroke:none;" d="M67 209L68 210L67 209z"/>
<path style="fill:#b7b7b9; stroke:none;" d="M68 209L69 210L68 209M70 209L71 210L70 209M94.3333 209.667L94.6667 210.333L94.3333 209.667z"/>
<path style="fill:#626163; stroke:none;" d="M97 209L98 210L97 209z"/>
<path style="fill:#b7b7b9; stroke:none;" d="M153 209L154 210L153 209z"/>
<path style="fill:#626163; stroke:none;" d="M179.333 209.667L179.667 210.333L179.333 209.667z"/>
<path style="fill:#b7b7b9; stroke:none;" d="M219 209L220 210L219 209z"/>
<path style="fill:#626163; stroke:none;" d="M57 210L58 211L57 210M66 210L67 211L66 210M122 210L123 211L122 210M220 210L221 211L220 210M245 210L246 211L245 210z"/>
<path style="fill:#fbfbfb; stroke:none;" d="M246 210L247 211L246 210z"/>
<path style="fill:#929294; stroke:none;" d="M56 211L57 212L56 211z"/>
<path style="fill:#626163; stroke:none;" d="M65 211L66 212L65 211z"/>
<path style="fill:#b7b7b9; stroke:none;" d="M96 211L97 212L96 211z"/>
<path style="fill:#929294; stroke:none;" d="M98 211L99 212L98 211M122 211L123 212L122 211z"/>
<path style="fill:#626163; stroke:none;" d="M154 211L155 212L154 211z"/>
<path style="fill:#929294; stroke:none;" d="M180.333 211.667L180.667 212.333L180.333 211.667M220 211L221 212L220 211z"/>
<path style="fill:#b7b7b9; stroke:none;" d="M55 212L56 213L55 212z"/>
<path style="fill:#626163; stroke:none;" d="M64 212L65 213L64 212z"/>
<path style="fill:#b7b7b9; stroke:none;" d="M67 212L65 215L73 212L67 212M98 212L99 213L98 212z"/>
<path style="fill:#626163; stroke:none;" d="M99 212L100 213L99 212z"/>
<path style="fill:#929294; stroke:none;" d="M154 212L155 213L154 212z"/>
<path style="fill:#b7b7b9; stroke:none;" d="M185 212L186 213L185 212z"/>
<path style="fill:#626163; stroke:none;" d="M246 212L247 213L246 212M55 213L56 214L55 213z"/>
<path style="fill:#b7b7b9; stroke:none;" d="M64 213L65 214L64 213z"/>
<path style="fill:#fbfbfb; stroke:none;" d="M67 213L66 215L68 215L67 213z"/>
<path style="fill:#929294; stroke:none;" d="M99 213L100 214L99 213z"/>
<path style="fill:#626163; stroke:none;" d="M121 213L122 214L121 213z"/>
<path style="fill:#b7b7b9; stroke:none;" d="M154 213L155 214L154 213z"/>
<path style="fill:#626163; stroke:none;" d="M180.333 213.667L180.667 214.333L180.333 213.667M221 213L222 214L221 213z"/>
<path style="fill:#b7b7b9; stroke:none;" d="M54 214L55 215L54 214M63 214L64 215L63 214z"/>
<path style="fill:#626163; stroke:none;" d="M100 214L101 215L100 214z"/>
<path style="fill:#929294; stroke:none;" d="M121 214L122 215L121 214z"/>
<path style="fill:#626163; stroke:none;" d="M155.333 214.667L155.667 215.333L155.333 214.667z"/>
<path style="fill:#b7b7b9; stroke:none;" d="M221 214L222 215L221 214z"/>
<path style="fill:#626163; stroke:none;" d="M247 214L248 215L247 214M54 215L55 216L54 215M62 215L63 216L62 215z"/>
<path style="fill:#b7b7b9; stroke:none;" d="M65 222L64 222L63 219L62 219L64 224L61 224C61 227.928 60.6174 231.654 58 231L59 245L60 245L60 243L61 243L60 249L62 248L61 251C64.6296 248.713 64.8216 245.08 65 241L64 241L64 245L63 245C64.5532 232.801 66.8547 225.426 73 215C68.7046 216.125 66.2613 217.64 65 222z"/>
<path style="fill:#929294; stroke:none;" d="M100 215L101 216L100 215z"/>
<path style="fill:#fbfbfb; stroke:none;" d="M128 215L129 216L128 215z"/>
<path style="fill:#b7b7b9; stroke:none;" d="M53 216L54 217L53 216z"/>
<path style="fill:#626163; stroke:none;" d="M61 216L62 217L61 216z"/>
<path style="fill:#b7b7b9; stroke:none;" d="M100 216L101 217L100 216z"/>
<path style="fill:#626163; stroke:none;" d="M120 216L120 221L121 221L120 216z"/>
<path style="fill:#b7b7b9; stroke:none;" d="M155.333 216.667L155.667 217.333L155.333 216.667z"/>
<path style="fill:#929294; stroke:none;" d="M181.333 216.667L181.667 217.333L181.333 216.667z"/>
<path style="fill:#626163; stroke:none;" d="M222 216L223 217L222 216M248 216L249 217L248 216z"/>
<path style="fill:#fbfbfb; stroke:none;" d="M249 216L250 217L249 216z"/>
<path style="fill:#929294; stroke:none;" d="M53 217L54 218L53 217M61 217L62 218L61 217z"/>
<path style="fill:#626163; stroke:none;" d="M101 217L102 218L101 217z"/>
<path style="fill:#929294; stroke:none;" d="M222 217L223 218L222 217z"/>
<path style="fill:#626163; stroke:none;" d="M60 218L61 219L60 218z"/>
<path style="fill:#b7b7b9; stroke:none;" d="M64 218L65 219L64 218M101.333 218.667L101.667 219.333L101.333 218.667z"/>
<path style="fill:#626163; stroke:none;" d="M156.333 218.667L156.667 219.333L156.333 218.667M181 218L181 221L182 221L181 218z"/>
<path style="fill:#b7b7b9; stroke:none;" d="M222 218L222 221L223 221L222 218z"/>
<path style="fill:#626163; stroke:none;" d="M249 218L250 219L249 218z"/>
<path style="fill:#fbfbfb; stroke:none;" d="M250 218L251 219L250 218z"/>
<path style="fill:#b7b7b9; stroke:none;" d="M52 219L53 220L52 219z"/>
<path style="fill:#929294; stroke:none;" d="M60 219L61 220L60 219z"/>
<path style="fill:#626163; stroke:none;" d="M102.333 219.667L102.667 220.333L102.333 219.667M52 220L53 221L52 220z"/>
<path style="fill:#b7b7b9; stroke:none;" d="M60 220L61 221L60 220z"/>
<path style="fill:#929294; stroke:none;" d="M156 220L157 221L156 220z"/>
<path style="fill:#626163; stroke:none;" d="M250 220L251 221L250 220z"/>
<path style="fill:#fbfbfb; stroke:none;" d="M252 220L252 222L254 222L252 220z"/>
<path style="fill:#b7b7b9; stroke:none;" d="M51 221L52 222L51 221M101 221L102 222L101 221z"/>
<path style="fill:#929294; stroke:none;" d="M121 221L122 222L121 221z"/>
<path style="fill:#b7b7b9; stroke:none;" d="M156 221L157 222L156 221z"/>
<path style="fill:#929294; stroke:none;" d="M222 221L223 222L222 221M251 221L252 222L251 221M51 222L52 223L51 222z"/>
<path style="fill:#626163; stroke:none;" d="M59 222L60 223L59 222z"/>
<path style="fill:#929294; stroke:none;" d="M100 222L101 223L100 222M122 222L123 223L122 222z"/>
<path style="fill:#626163; stroke:none;" d="M222 222L223 223L222 222z"/>
<path style="fill:#929294; stroke:none;" d="M252 222L253 223L252 222z"/>
<path style="fill:#626163; stroke:none;" d="M51 223L52 224L51 223z"/>
<path style="fill:#929294; stroke:none;" d="M59 223L60 224L59 223z"/>
<path style="fill:#b7b7b9; stroke:none;" d="M62 223L63 224L62 223z"/>
<path style="fill:#626163; stroke:none;" d="M99 223L100 224L99 223M123 223L124 224L123 223z"/>
<path style="fill:#929294; stroke:none;" d="M124 223L125 224L124 223z"/>
<path style="fill:#626163; stroke:none;" d="M157.333 223.667L157.667 224.333L157.333 223.667z"/>
<path style="fill:#929294; stroke:none;" d="M220 223L221 224L220 223z"/>
<path style="fill:#626163; stroke:none;" d="M253 223L254 224L253 223z"/>
<path style="fill:#b7b7b9; stroke:none;" d="M59 224L59 227L60 227L59 224M93 224L93 225L96 225L93 224z"/>
<path style="fill:#929294; stroke:none;" d="M96 224L97 225L96 224z"/>
<path style="fill:#626163; stroke:none;" d="M97 224L98 225L97 224M126.667 224.333L127.333 224.667L126.667 224.333z"/>
<path style="fill:#929294; stroke:none;" d="M128.667 224.333L129.333 224.667L128.667 224.333z"/>
<path style="fill:#b7b7b9; stroke:none;" d="M130 224L130 225L133 225L130 224z"/>
<path style="fill:#929294; stroke:none;" d="M182 224L182 227L183 227L182 224z"/>
<path style="fill:#b7b7b9; stroke:none;" d="M211 224L211 225L215 225L211 224z"/>
<path style="fill:#929294; stroke:none;" d="M215.667 224.333L216.333 224.667L215.667 224.333z"/>
<path style="fill:#626163; stroke:none;" d="M217.667 224.333L218.333 224.667L217.667 224.333M255.667 224.333L256.333 224.667L255.667 224.333z"/>
<path style="fill:#929294; stroke:none;" d="M257 224L258 225L257 224z"/>
<path style="fill:#b7b7b9; stroke:none;" d="M258 224L258 225L261 225L258 224M85 225L86 226L85 225z"/>
<path style="fill:#626163; stroke:none;" d="M86.6667 225.333L87.3333 225.667L86.6667 225.333M138.667 225.333L139.333 225.667L138.667 225.333z"/>
<path style="fill:#929294; stroke:none;" d="M140 225L141 226L140 225M157 225L158 226L157 225z"/>
<path style="fill:#626163; stroke:none;" d="M202 225L202 226L206 226L202 225M264.667 225.333L265.333 225.667L264.667 225.333z"/>
<path style="fill:#b7b7b9; stroke:none;" d="M266 225L267 226L266 225M50 226L51 227L50 226z"/>
<path style="fill:#626163; stroke:none;" d="M58.3333 226.667L58.6667 227.333L58.3333 226.667M85 226L85 232L86 232L85 226z"/>
<path style="fill:#b7b7b9; stroke:none;" d="M141 226L140 234L141 234L141 226M157.333 226.667L157.667 227.333L157.333 226.667M201 226L201 232L202 232L201 226z"/>
<path style="fill:#929294; stroke:none;" d="M266 226L266 232L267 232L266 226M50 227L51 228L50 227z"/>
<path style="fill:#626163; stroke:none;" d="M182 227L182 237L183 237L182 227M50.3333 228.667L50.6667 229.333L50.3333 228.667z"/>
<path style="fill:#929294; stroke:none;" d="M58 228L58 231L59 231L58 228z"/>
<path style="fill:#fbfbfb; stroke:none;" d="M62.3333 229.667L62.6667 230.333L62.3333 229.667z"/>
<path style="fill:#626163; stroke:none;" d="M158 229L158 232L159 232L158 229z"/>
<path style="fill:#b7b7b9; stroke:none;" d="M49 232L49 237L50 237L49 232z"/>
<path style="fill:#929294; stroke:none;" d="M85 232L86 233L85 232z"/>
<path style="fill:#626163; stroke:none;" d="M94 232L94 233L104 233L94 232z"/>
<path style="fill:#929294; stroke:none;" d="M104 232L104 233L110 233L104 232z"/>
<path style="fill:#626163; stroke:none;" d="M110 232L110 233L132 233L110 232M140 232L141 233L140 232z"/>
<path style="fill:#929294; stroke:none;" d="M158 232L158 237L159 237L158 232z"/>
<path style="fill:#626163; stroke:none;" d="M221 232L221 233L237 233L221 232z"/>
<path style="fill:#929294; stroke:none;" d="M237 232L237 233L251 233L237 232z"/>
<path style="fill:#626163; stroke:none;" d="M251 232L251 233L258 233L251 232z"/>
<path style="fill:#b7b7b9; stroke:none;" d="M202 233L202 234L219 234L219 235L213 235C225.367 247.64 251.749 231.962 266 239L267 239L269 234L268 232L202 233z"/>
<path style="fill:#fbfbfb; stroke:none;" d="M59 233L59 237L60 237L59 233z"/>
<path style="fill:#b7b7b9; stroke:none;" d="M86 233L86 234L90 234L86 233M96 234L95 236L95 237L126 238.923L139 236L140 236L143 238L136 235L136 234L139 234C126.569 228.784 109.056 234.906 96 234z"/>
<path style="fill:#929294; stroke:none;" d="M139 233L140 234L139 233z"/>
<path style="fill:#b7b7b9; stroke:none;" d="M142 234L143 235L142 234z"/>
<path style="fill:#fbfbfb; stroke:none;" d="M264 234L264 235L267 235L264 234M63.3333 235.667L63.6667 236.333L63.3333 235.667z"/>
<path style="fill:#929294; stroke:none;" d="M49 237L50 238L49 237z"/>
<path style="fill:#b7b7b9; stroke:none;" d="M158 237L158 241L159 241L158 237z"/>
<path style="fill:#929294; stroke:none;" d="M182 237L182 240L183 240L182 237z"/>
<path style="fill:#b7b7b9; stroke:none;" d="M49 238L49 244L50 244L49 238z"/>
<path style="fill:#929294; stroke:none;" d="M58 240L59 241L58 240z"/>
<path style="fill:#fbfbfb; stroke:none;" d="M59 240L59 243L60 243L59 240z"/>
<path style="fill:#626163; stroke:none;" d="M58.3333 241.667L58.6667 242.333L58.3333 241.667z"/>
<path style="fill:#929294; stroke:none;" d="M158 241L158 244L159 244L158 241z"/>
<path style="fill:#626163; stroke:none;" d="M181.333 242.667L181.667 243.333L181.333 242.667z"/>
<path style="fill:#fbfbfb; stroke:none;" d="M60 243L60 248L61 248L60 243z"/>
<path style="fill:#626163; stroke:none;" d="M158 244L158 247L159 247L158 244z"/>
<path style="fill:#929294; stroke:none;" d="M181.333 244.667L181.667 245.333L181.333 244.667M59 245L60 246L59 245z"/>
<path style="fill:#626163; stroke:none;" d="M50.3333 246.667L50.6667 247.333L50.3333 246.667M59.3333 246.667L59.6667 247.333L59.3333 246.667M180 247L181 248L180 247z"/>
<path style="fill:#929294; stroke:none;" d="M50.3333 248.667L50.6667 249.333L50.3333 248.667z"/>
<path style="fill:#fbfbfb; stroke:none;" d="M61.3333 248.667L61.6667 249.333L61.3333 248.667z"/>
<path style="fill:#b7b7b9; stroke:none;" d="M157.333 248.667L157.667 249.333L157.333 248.667z"/>
<path style="fill:#929294; stroke:none;" d="M180.333 248.667L180.667 249.333L180.333 248.667M60 249L61 250L60 249z"/>
<path style="fill:#b7b7b9; stroke:none;" d="M50 250L51 251L50 250z"/>
<path style="fill:#626163; stroke:none;" d="M60 250L61 251L60 250z"/>
<path style="fill:#b7b7b9; stroke:none;" d="M64 250L63 256L65 256L66 253L64 254L64 253L65 251L64 250z"/>
<path style="fill:#626163; stroke:none;" d="M157.333 250.667L157.667 251.333L157.333 250.667M179 250L180 251L179 250z"/>
<path style="fill:#929294; stroke:none;" d="M61 251L62 252L61 251M179 251L180 252L179 251z"/>
<path style="fill:#626163; stroke:none;" d="M61 252L62 253L61 252M178 252L179 253L178 252M51 253L52 254L51 253z"/>
<path style="fill:#b7b7b9; stroke:none;" d="M156 253L157 254L156 253z"/>
<path style="fill:#929294; stroke:none;" d="M178 253L179 254L178 253M51 254L52 255L51 254z"/>
<path style="fill:#626163; stroke:none;" d="M62 254L63 255L62 254M156 254L157 255L156 254z"/>
<path style="fill:#b7b7b9; stroke:none;" d="M51 255L52 256L51 255z"/>
<path style="fill:#626163; stroke:none;" d="M177 255L178 256L177 255z"/>
<path style="fill:#fbfbfb; stroke:none;" d="M184 255L185 256L184 255z"/>
<path style="fill:#626163; stroke:none;" d="M63 256L64 257L63 256z"/>
<path style="fill:#b7b7b9; stroke:none;" d="M65 256L66 257L65 256M67 256L68 257L67 256z"/>
<path style="fill:#929294; stroke:none;" d="M155 256L156 257L155 256z"/>
<path style="fill:#626163; stroke:none;" d="M52 257L53 258L52 257z"/>
<path style="fill:#929294; stroke:none;" d="M64 257L65 258L64 257z"/>
<path style="fill:#b7b7b9; stroke:none;" d="M65 258L70 264L67 257L65 258z"/>
<path style="fill:#626163; stroke:none;" d="M155 257L156 258L155 257M176 257L177 258L176 257z"/>
<path style="fill:#b7b7b9; stroke:none;" d="M52 258L53 259L52 258z"/>
<path style="fill:#626163; stroke:none;" d="M64 258L65 259L64 258z"/>
<path style="fill:#b7b7b9; stroke:none;" d="M154 258L155 259L154 258z"/>
<path style="fill:#929294; stroke:none;" d="M65 259L66 260L65 259z"/>
<path style="fill:#fbfbfb; stroke:none;" d="M66 259L67 260L66 259z"/>
<path style="fill:#626163; stroke:none;" d="M154 259L155 260L154 259M175 259L176 260L175 259M53 260L54 261L53 260z"/>
<path style="fill:#929294; stroke:none;" d="M153 260L154 261L153 260z"/>
<path style="fill:#b7b7b9; stroke:none;" d="M53 261L54 262L53 261z"/>
<path style="fill:#626163; stroke:none;" d="M66 261L67 262L66 261z"/>
<path style="fill:#b7b7b9; stroke:none;" d="M152 261L153 262L152 261z"/>
<path style="fill:#626163; stroke:none;" d="M174 261L173 264L174 264L174 261M54 262L55 263L54 262M67 262L68 263L67 262M152 262L153 263L152 262z"/>
<path style="fill:#929294; stroke:none;" d="M174 262L175 263L174 262M54 263L55 264L54 263M68 263L69 264L68 263z"/>
<path style="fill:#b7b7b9; stroke:none;" d="M151 263L152 264L151 263z"/>
<path style="fill:#929294; stroke:none;" d="M69 264L70 265L69 264z"/>
<path style="fill:#b7b7b9; stroke:none;" d="M71 264L72 265L71 264M150 264L151 265L150 264z"/>
<path style="fill:#626163; stroke:none;" d="M172 264L173 265L172 264z"/>
<path style="fill:#929294; stroke:none;" d="M55 265L56 266L55 265z"/>
<path style="fill:#b7b7b9; stroke:none;" d="M70 265L71 266L70 265M149 265L150 266L149 265z"/>
<path style="fill:#929294; stroke:none;" d="M172 265L173 266L172 265z"/>
<path style="fill:#b7b7b9; stroke:none;" d="M71 266L72 267L71 266z"/>
<path style="fill:#626163; stroke:none;" d="M171 266L172 267L171 266z"/>
<path style="fill:#929294; stroke:none;" d="M56 267L57 268L56 267z"/>
<path style="fill:#b7b7b9; stroke:none;" d="M72 267L73 268L72 267M74 267L75 268L74 267M147 267L148 268L147 267z"/>
<path style="fill:#626163; stroke:none;" d="M170 267L171 268L170 267M57 268L58 269L57 268z"/>
<path style="fill:#929294; stroke:none;" d="M73 268L74 269L73 268z"/>
<path style="fill:#b7b7b9; stroke:none;" d="M146 268L147 269L146 268z"/>
<path style="fill:#929294; stroke:none;" d="M170 268L171 269L170 268z"/>
<path style="fill:#b7b7b9; stroke:none;" d="M57 269L58 270L57 269z"/>
<path style="fill:#929294; stroke:none;" d="M74 269L75 270L74 269z"/>
<path style="fill:#b7b7b9; stroke:none;" d="M75 269L76 270L75 269M77 269L78 270L77 269z"/>
<path style="fill:#929294; stroke:none;" d="M145 269L146 270L145 269M169 269L170 270L169 269z"/>
<path style="fill:#626163; stroke:none;" d="M58 270L59 271L58 270M75 270L76 271L75 270M144 270L145 271L144 270M168 270L169 271L168 270z"/>
<path style="fill:#b7b7b9; stroke:none;" d="M58 271L59 272L58 271z"/>
<path style="fill:#626163; stroke:none;" d="M76 271L77 272L76 271z"/>
<path style="fill:#b7b7b9; stroke:none;" d="M77 271L78 272L77 271M142 271L143 272L142 271z"/>
<path style="fill:#626163; stroke:none;" d="M167 271L168 272L167 271z"/>
<path style="fill:#929294; stroke:none;" d="M59 272L60 273L59 272M78 272L79 273L78 272z"/>
<path style="fill:#626163; stroke:none;" d="M141 272L142 273L141 272M166 272L167 273L166 272M60 273L61 274L60 273M79 273L80 274L79 273z"/>
<path style="fill:#b7b7b9; stroke:none;" d="M80 273L81 274L80 273M139 273L140 274L139 273z"/>
<path style="fill:#929294; stroke:none;" d="M166 273L167 274L166 273z"/>
<path style="fill:#626163; stroke:none;" d="M61 274L62 275L61 274M81 274L82 275L81 274M138 274L139 275L138 274z"/>
<path style="fill:#929294; stroke:none;" d="M165 274L166 275L165 274M83 275L84 276L83 275M136 275L137 276L136 275M164 275L165 276L164 275z"/>
<path style="fill:#b7b7b9; stroke:none;" d="M62 276L63 277L62 276z"/>
<path style="fill:#626163; stroke:none;" d="M85 276L86 277L85 276z"/>
<path style="fill:#b7b7b9; stroke:none;" d="M86 276L87 277L86 276z"/>
<path style="fill:#929294; stroke:none;" d="M134 276L135 277L134 276M163 276L164 277L163 276z"/>
<path style="fill:#b7b7b9; stroke:none;" d="M63 277L64 278L63 277z"/>
<path style="fill:#626163; stroke:none;" d="M87 277L88 278L87 277z"/>
<path style="fill:#929294; stroke:none;" d="M88 277L89 278L88 277z"/>
<path style="fill:#b7b7b9; stroke:none;" d="M131 277L132 278L131 277z"/>
<path style="fill:#626163; stroke:none;" d="M132 277L133 278L132 277z"/>
<path style="fill:#929294; stroke:none;" d="M162 277L163 278L162 277z"/>
<path style="fill:#b7b7b9; stroke:none;" d="M64 278L65 279L64 278z"/>
<path style="fill:#929294; stroke:none;" d="M90 278L91 279L90 278z"/>
<path style="fill:#b7b7b9; stroke:none;" d="M91 278L92 279L91 278M128.667 278.333L129.333 278.667L128.667 278.333z"/>
<path style="fill:#626163; stroke:none;" d="M130 278L131 279L130 278z"/>
<path style="fill:#929294; stroke:none;" d="M161 278L162 279L161 278z"/>
<path style="fill:#b7b7b9; stroke:none;" d="M65 279L66 280L65 279z"/>
<path style="fill:#626163; stroke:none;" d="M93 279L94 280L93 279z"/>
<path style="fill:#929294; stroke:none;" d="M94 279L95 280L94 279M126 279L127 280L126 279z"/>
<path style="fill:#626163; stroke:none;" d="M127 279L128 280L127 279M159 279L160 280L159 279z"/>
<path style="fill:#929294; stroke:none;" d="M160 279L161 280L160 279z"/>
<path style="fill:#b7b7b9; stroke:none;" d="M66 280L68 282L66 280z"/>
<path style="fill:#626163; stroke:none;" d="M67 280L68 281L67 280M96.6667 280.333L97.3333 280.667L96.6667 280.333z"/>
<path style="fill:#b7b7b9; stroke:none;" d="M98.6667 280.333L99.3333 280.667L98.6667 280.333M121.667 280.333L122.333 280.667L121.667 280.333z"/>
<path style="fill:#929294; stroke:none;" d="M123 280L124 281L123 280z"/>
<path style="fill:#626163; stroke:none;" d="M124 280L125 281L124 280M158 280L159 281L158 280M68 281L69 282L68 281M101.667 281.333L102.333 281.667L101.667 281.333z"/>
<path style="fill:#929294; stroke:none;" d="M103.667 281.333L104.333 281.667L103.667 281.333z"/>
<path style="fill:#b7b7b9; stroke:none;" d="M105 281L105 282L110 282L105 281M112 281L112 282L116 282L112 281z"/>
<path style="fill:#929294; stroke:none;" d="M116.667 281.333L117.333 281.667L116.667 281.333z"/>
<path style="fill:#626163; stroke:none;" d="M118.667 281.333L119.333 281.667L118.667 281.333M157 281L158 282L157 281M69 282L70 283L69 282M155 282L154 284L155 282z"/>
<path style="fill:#929294; stroke:none;" d="M156 282L157 283L156 282M70 283L71 284L70 283M155 283L156 284L155 283z"/>
<path style="fill:#b7b7b9; stroke:none;" d="M71 284L73 286L71 284z"/>
<path style="fill:#626163; stroke:none;" d="M72 284L73 285L72 284M152 284L153 285L152 284z"/>
<path style="fill:#929294; stroke:none;" d="M153 284L154 285L153 284M73 285L74 286L73 285z"/>
<path style="fill:#626163; stroke:none;" d="M151 285L152 286L151 285z"/>
<path style="fill:#b7b7b9; stroke:none;" d="M74 286L75 287L74 286z"/>
<path style="fill:#626163; stroke:none;" d="M75 286L76 287L75 286M149 286L150 287L149 286z"/>
<path style="fill:#929294; stroke:none;" d="M150 286L151 287L150 286z"/>
<path style="fill:#b7b7b9; stroke:none;" d="M76 287L77 288L76 287z"/>
<path style="fill:#626163; stroke:none;" d="M77 287L78 288L77 287M147 287L148 288L147 287z"/>
<path style="fill:#929294; stroke:none;" d="M148 287L149 288L148 287z"/>
<path style="fill:#b7b7b9; stroke:none;" d="M75 288L76 289L75 288z"/>
<path style="fill:#626163; stroke:none;" d="M79 288L80 289L79 288z"/>
<path style="fill:#929294; stroke:none;" d="M146 288L147 289L146 288z"/>
<path style="fill:#b7b7b9; stroke:none;" d="M77 289L78 290L77 289z"/>
<path style="fill:#626163; stroke:none;" d="M81 289L82 290L81 289M143 289L144 290L143 289z"/>
<path style="fill:#929294; stroke:none;" d="M144 289L145 290L144 289M83 290L84 291L83 290z"/>
<path style="fill:#626163; stroke:none;" d="M84 290L85 291L84 290M141 290L142 291L141 290z"/>
<path style="fill:#929294; stroke:none;" d="M142 290L143 291L142 290z"/>
<path style="fill:#fbfbfb; stroke:none;" d="M81 291L81 292L84 292L81 291z"/>
<path style="fill:#929294; stroke:none;" d="M86 291L87 292L86 291z"/>
<path style="fill:#626163; stroke:none;" d="M87 291L88 292L87 291M138 291L139 292L138 291z"/>
<path style="fill:#929294; stroke:none;" d="M139 291L140 292L139 291z"/>
<path style="fill:#fbfbfb; stroke:none;" d="M86 292L87 293L86 292z"/>
<path style="fill:#929294; stroke:none;" d="M89 292L90 293L89 292z"/>
<path style="fill:#626163; stroke:none;" d="M90.6667 292.333L91.3333 292.667L90.6667 292.333M135 292L136 293L135 292z"/>
<path style="fill:#929294; stroke:none;" d="M136 292L137 293L136 292M93 293L94 294L93 293z"/>
<path style="fill:#626163; stroke:none;" d="M94.6667 293.333L95.3333 293.667L94.6667 293.333M131.667 293.333L132.333 293.667L131.667 293.333z"/>
<path style="fill:#929294; stroke:none;" d="M133 293L134 294L133 293z"/>
<path style="fill:#fbfbfb; stroke:none;" d="M92 294L92 295L95 295L92 294z"/>
<path style="fill:#929294; stroke:none;" d="M98.6667 294.333L99.3333 294.667L98.6667 294.333z"/>
<path style="fill:#626163; stroke:none;" d="M100 294L100 295L103 295L100 294M125 294L125 295L128 295L125 294z"/>
<path style="fill:#929294; stroke:none;" d="M128.667 294.333L129.333 294.667L128.667 294.333z"/>
<path style="fill:#b7b7b9; stroke:none;" d="M86 295L87 296L86 295z"/>
<path style="fill:#929294; stroke:none;" d="M106 295L106 296L123 296L106 295z"/>
</svg>
