<?xml version="1.0" standalone="no"?>
<!DOCTYPE svg PUBLIC "-//W3C//DTD SVG 20010904//EN"
 "http://www.w3.org/TR/2001/REC-SVG-20010904/DTD/svg10.dtd">
<svg version="1.0" xmlns="http://www.w3.org/2000/svg"
 width="322.000000pt" height="322.000000pt" viewBox="0 0 322.000000 322.000000"
 preserveAspectRatio="xMidYMid meet">

<g transform="translate(0.000000,322.000000) scale(0.100000,-0.100000)"
fill="#000000" stroke="none">
<path d="M1317 3010 c-66 -17 -120 -51 -188 -119 -158 -159 -196 -368 -112
-626 14 -44 88 -205 164 -358 l139 -278 -96 -217 c-53 -119 -103 -223 -110
-231 -11 -12 -19 -9 -55 23 -95 87 -210 103 -324 47 -156 -77 -246 -256 -230
-458 20 -259 160 -428 412 -494 106 -28 319 -31 413 -5 153 41 280 130 371
259 165 235 154 502 -36 881 -36 70 -65 131 -65 135 0 8 419 5 428 -3 3 -3 22
-50 43 -103 20 -54 64 -163 97 -243 32 -80 62 -160 65 -178 10 -51 -14 -68
-114 -76 -92 -8 -104 -14 -94 -45 6 -20 10 -20 318 -18 l312 2 0 25 c0 23 -5
26 -50 31 -28 4 -61 13 -74 20 -26 16 -149 262 -232 464 -29 72 -95 229 -147
350 -117 273 -231 544 -332 786 -42 103 -94 212 -115 243 -46 70 -126 143
-185 168 -52 23 -150 31 -203 18z m229 -128 c90 -47 152 -152 161 -275 l6 -74
-138 -322 c-76 -177 -144 -329 -150 -338 -7 -9 -17 -13 -23 -9 -19 12 -171
273 -229 393 -67 138 -82 211 -65 320 27 173 117 282 267 324 45 12 128 3 171
-19z m195 -634 c7 -18 54 -131 105 -251 51 -121 94 -229 96 -240 3 -22 2 -22
-224 -25 -208 -2 -228 -1 -228 14 0 10 42 117 94 238 52 122 101 238 110 259
18 46 30 47 47 5z m-297 -870 c104 -222 146 -372 146 -528 0 -190 -50 -284
-199 -374 -121 -74 -284 -100 -421 -67 -167 41 -320 167 -365 301 -37 110 -36
259 1 332 23 46 82 106 129 131 59 31 150 30 199 -3 41 -28 101 -135 91 -162
-8 -20 -49 -37 -111 -46 -45 -7 -49 -9 -49 -35 l0 -28 259 1 c142 0 263 3 267
6 5 3 9 16 9 28 0 21 -6 24 -72 30 -39 3 -83 12 -97 19 -44 22 -35 88 34 243
31 71 69 157 83 191 15 35 32 63 37 63 6 0 32 -46 59 -102z"/>
</g>
</svg>
